<?xml version="1.0" encoding="UTF-8"?>
<svg id="Capa_1" data-name="Capa 1" xmlns="http://www.w3.org/2000/svg" viewBox="0 0 903.85 829.31">
  <defs>
    <style>
      .cls-1 {
        fill: #003;
      }

      .cls-2 {
        fill: #0cf;
      }
    </style>
  </defs>
  <g>
    <g>
      <polygon class="cls-1" points="480.91 482.37 326.92 219.86 274.11 309.88 377.76 482.37 480.91 482.37"/>
      <polygon class="cls-1" points="172.93 482.37 279.93 482.37 225.79 392.27 172.93 482.37"/>
    </g>
    <g>
      <polygon class="cls-2" points="424.82 219.86 578.81 482.37 631.61 392.35 527.97 219.86 424.82 219.86"/>
      <polygon class="cls-2" points="732.8 219.86 625.8 219.86 679.94 309.96 732.8 219.86"/>
    </g>
  </g>
  <g>
    <path class="cls-1" d="M170.58,608.65l21.11-46.67h9.43l20.89,46.67h-11.6l-16.02-38.46h3.97l-16.32,38.46h-11.46ZM182.19,598.67v-8.01h28.53v8.01h-28.53Z"/>
    <path class="cls-1" d="M262.07,609.38c-3.58,0-6.91-.62-9.98-1.85-3.07-1.23-5.77-2.96-8.1-5.16-2.33-2.21-4.14-4.75-5.44-7.65-1.3-2.89-1.95-6.03-1.95-9.43s.67-6.54,2.02-9.43c1.35-2.89,3.2-5.44,5.55-7.65,2.35-2.21,5.1-3.91,8.27-5.1,3.16-1.19,6.58-1.79,10.26-1.79,4.14,0,7.91.72,11.3,2.15,3.4,1.43,6.23,3.45,8.51,6.06l-6.98,6.62c-1.54-1.94-3.4-3.41-5.58-4.4-2.19-.99-4.65-1.49-7.4-1.49-3.03,0-5.7.63-8.03,1.89-2.33,1.26-4.15,3.01-5.48,5.26-1.33,2.25-1.99,4.86-1.99,7.81s.65,5.7,1.95,7.98c1.3,2.27,3.08,4.05,5.34,5.33,2.26,1.28,4.8,1.92,7.64,1.92s5.52-.53,7.64-1.59c2.12-1.06,3.74-2.6,4.88-4.63,1.14-2.03,1.71-4.52,1.71-7.48l6.77,4.37-21.77-.2v-8.41h25.47v1.39c0,5.61-1.06,10.31-3.18,14.1-2.12,3.8-5.02,6.64-8.72,8.54-3.7,1.9-7.94,2.85-12.74,2.85Z"/>
    <path class="cls-1" d="M307.6,608.65v-46.67h9.85v46.67h-9.85ZM314.97,589.32v-7.35h10.45c2.14,0,3.81-.55,4.99-1.66,1.18-1.1,1.78-2.58,1.78-4.44s-.58-3.23-1.74-4.4c-1.16-1.17-2.84-1.75-5.03-1.75h-10.45v-7.75h11.52c3.04,0,5.73.6,8.07,1.79,2.35,1.19,4.18,2.8,5.49,4.83,1.32,2.03,1.98,4.39,1.98,7.08s-.66,5.12-1.98,7.15c-1.32,2.03-3.16,3.62-5.53,4.77-2.37,1.15-5.14,1.72-8.31,1.72h-11.26ZM335.02,608.65l-16.6-20.06,8.98-2.65,19.34,22.71h-11.73Z"/>
    <path class="cls-1" d="M387.97,609.45c-3.73,0-7.18-.63-10.34-1.89-3.16-1.26-5.93-2.98-8.29-5.16-2.36-2.18-4.2-4.74-5.52-7.68-1.32-2.93-1.98-6.1-1.98-9.5s.65-6.49,1.95-9.4c1.3-2.91,3.13-5.46,5.49-7.65,2.36-2.18,5.11-3.88,8.25-5.1,3.14-1.21,6.57-1.82,10.31-1.82s7.16.61,10.3,1.82c3.14,1.21,5.89,2.91,8.25,5.1,2.36,2.18,4.2,4.74,5.52,7.68,1.32,2.93,1.98,6.08,1.98,9.43s-.65,6.55-1.95,9.47c-1.3,2.91-3.14,5.47-5.52,7.68-2.39,2.21-5.15,3.93-8.29,5.16-3.14,1.23-6.53,1.85-10.16,1.85ZM387.83,600.51c3.07,0,5.75-.64,8.04-1.92,2.29-1.28,4.09-3.07,5.42-5.36,1.32-2.29,1.98-4.96,1.98-8.01,0-2.21-.38-4.24-1.13-6.09-.76-1.85-1.82-3.44-3.19-4.77-1.37-1.32-2.99-2.36-4.85-3.11-1.87-.75-3.96-1.13-6.27-1.13-3.07,0-5.76.64-8.07,1.92-2.31,1.28-4.11,3.06-5.38,5.33-1.28,2.27-1.91,4.89-1.91,7.84,0,2.3.36,4.38,1.1,6.26.73,1.88,1.77,3.48,3.12,4.8,1.35,1.32,2.98,2.36,4.89,3.11,1.91.75,4,1.13,6.27,1.13Z"/>
    <path class="cls-1" d="M448.47,608.65l-20.91-46.67h11.98l16.1,37.73h-4.81l16.25-37.73h11.91l-21.29,46.67h-9.23Z"/>
    <path class="cls-1" d="M498.16,608.65v-46.67h10.26v46.67h-10.26Z"/>
    <path class="cls-1" d="M547.03,609.38c-4.12,0-7.66-.63-10.63-1.89-2.97-1.26-5.65-3.19-8.04-5.79l6.89-6.36c1.58,1.81,3.35,3.2,5.31,4.17,1.96.97,4.31,1.46,7.04,1.46,2.44,0,4.38-.43,5.82-1.29,1.44-.86,2.15-2.06,2.15-3.61,0-1.32-.43-2.42-1.29-3.28-.86-.86-2-1.58-3.41-2.15-1.41-.57-2.97-1.11-4.67-1.62-1.7-.51-3.4-1.1-5.1-1.79-1.7-.68-3.26-1.53-4.67-2.55-1.41-1.01-2.55-2.32-3.41-3.91s-1.29-3.55-1.29-5.89c0-2.87.75-5.32,2.26-7.35,1.51-2.03,3.58-3.57,6.21-4.63,2.63-1.06,5.62-1.59,8.98-1.59,3.54,0,6.74.57,9.59,1.72,2.85,1.15,5.18,2.69,7,4.63l-6.89,6.35c-1.48-1.46-3-2.54-4.56-3.24-1.56-.71-3.31-1.06-5.28-1.06-2.11,0-3.77.38-4.99,1.13-1.22.75-1.83,1.81-1.83,3.18,0,1.19.43,2.17,1.29,2.95.86.77,2,1.43,3.41,1.99,1.41.55,2.97,1.09,4.67,1.62,1.7.53,3.39,1.14,5.06,1.82,1.68.68,3.23,1.57,4.67,2.65,1.44,1.08,2.57,2.44,3.41,4.07.84,1.63,1.26,3.69,1.26,6.16,0,4.41-1.69,7.87-5.06,10.36-3.37,2.49-8.01,3.74-13.89,3.74Z"/>
    <path class="cls-1" d="M586.63,608.65v-46.67h10.26v46.67h-10.26Z"/>
    <path class="cls-1" d="M644.27,609.45c-3.73,0-7.18-.63-10.34-1.89-3.16-1.26-5.93-2.98-8.29-5.16-2.36-2.18-4.2-4.74-5.52-7.68-1.32-2.93-1.98-6.1-1.98-9.5s.65-6.49,1.95-9.4c1.3-2.91,3.13-5.46,5.49-7.65,2.36-2.18,5.11-3.88,8.25-5.1,3.14-1.21,6.57-1.82,10.31-1.82s7.16.61,10.3,1.82c3.14,1.21,5.89,2.91,8.25,5.1,2.36,2.18,4.2,4.74,5.52,7.68,1.32,2.93,1.98,6.08,1.98,9.43s-.65,6.55-1.95,9.47c-1.3,2.91-3.14,5.47-5.52,7.68-2.39,2.21-5.15,3.93-8.29,5.16-3.14,1.23-6.53,1.85-10.16,1.85ZM644.13,600.51c3.07,0,5.75-.64,8.04-1.92,2.29-1.28,4.09-3.07,5.42-5.36,1.32-2.29,1.98-4.96,1.98-8.01,0-2.21-.38-4.24-1.13-6.09-.76-1.85-1.82-3.44-3.19-4.77-1.37-1.32-2.99-2.36-4.85-3.11-1.87-.75-3.96-1.13-6.27-1.13-3.07,0-5.76.64-8.07,1.92-2.31,1.28-4.11,3.06-5.38,5.33-1.28,2.27-1.91,4.89-1.91,7.84,0,2.3.36,4.38,1.1,6.26.73,1.88,1.77,3.48,3.12,4.8,1.35,1.32,2.98,2.36,4.89,3.11,1.91.75,4,1.13,6.27,1.13Z"/>
    <path class="cls-1" d="M691.13,608.65v-46.67h7.32l3.13,9.2v37.47h-10.45ZM725.74,608.65l-29.63-35.48,2.35-11.19,29.56,35.55-2.27,11.12ZM725.74,608.65l-2.91-9.07v-37.6h10.45v46.67h-7.53Z"/>
  </g>
</svg>